<?xml version="1.0" encoding="utf-8"?>
<!-- Generator: Adobe Illustrator 21.0.0, SVG Export Plug-In . SVG Version: 6.00 Build 0)  -->
<svg version="1.1" id="Layer_1" xmlns="http://www.w3.org/2000/svg" xmlns:xlink="http://www.w3.org/1999/xlink" x="0px" y="0px"
	 viewBox="0 0 2385 430" enable-background="new 0 0 2385 430" xml:space="preserve">
<path d="M2.3,72.5v26.8h13.2V45.7H2.3V72.5z M2.3,72.5"/>
<path d="M22.5,46.1c0,0.6,18.1,43.3,18.5,43.8c0.3,0.2,3.4,0.3,7,0.1l6.5-0.3l-9.1-22.1l-9.2-22h-6.8C25.5,45.7,22.5,45.9,22.5,46.1
	L22.5,46.1z M22.5,46.1"/>
<path d="M265.3,46.1c0,0.6,18.1,43.3,18.5,43.8c0.3,0.2,3.4,0.3,7,0.1l6.5-0.3l-9.1-22.1l-9.2-22h-6.8
	C268.3,45.7,265.3,45.9,265.3,46.1L265.3,46.1z M265.3,46.1"/>
<path d="M305.8,72.5v26.8h13.2V45.7h-13.2V72.5z M305.8,72.5"/>
<path d="M326,46.1c0,0.2,3.9,9.6,8.7,20.9c4.8,11.3,8.9,21.2,9.2,21.8c0.3,0.8,2.3,1.3,5,1.3h4.4v11.1h160.9V88.2L435.7,88
	l-78.5-0.3l-8.7-21l-8.8-20.9h-6.8C329,45.7,326,45.9,326,46.1L326,46.1z M326,46.1"/>
<path d="M568.8,46c0,0.6,18.1,43.4,18.5,43.9c0.3,0.2,3.4,0.3,7,0.1l6.5-0.3l-9.1-22.1l-9.2-22h-6.8C571.8,45.7,568.8,45.9,568.8,46
	L568.8,46z M568.8,46"/>
<path d="M609.3,72.5v26.8h13.2V45.7h-13.2V72.5z M609.3,72.5"/>
<path d="M629.5,46c0,0.6,18.1,43.4,18.5,43.9c0.3,0.2,3.4,0.3,7,0.1l6.5-0.3l-9.1-22.1l-9.2-22h-6.8C632.5,45.7,629.5,45.9,629.5,46
	L629.5,46z M629.5,46"/>
<path d="M902.7,46c0,0.6,18.1,43.4,18.5,43.9c0.3,0.2,3.4,0.3,7,0.1l6.5-0.3l-9.1-22.1l-9.2-22h-6.8C905.7,45.7,902.7,45.9,902.7,46
	L902.7,46z M902.7,46"/>
<path d="M943.1,72.5v26.8h13.2V45.7h-13.2V72.5z M943.1,72.5"/>
<path d="M963.4,46c0,0.6,18.1,43.4,18.5,43.9c0.3,0.2,3.4,0.3,7,0.1l6.5-0.3l-9.1-22.1l-9.2-22h-6.8C966.4,45.7,963.4,45.9,963.4,46
	L963.4,46z M963.4,46"/>
<path d="M1206.2,46c0,0.6,18.1,43.4,18.5,43.9c0.3,0.2,3.4,0.3,7,0.1l6.6-0.3l-9.2-22.1l-9.2-22h-6.8
	C1209.2,45.7,1206.2,45.9,1206.2,46L1206.2,46z M1206.2,46"/>
<path d="M1246.6,72.5v26.8h13.2V45.7h-13.2V72.5z M1246.6,72.5"/>
<path d="M1266.9,46c0,0.6,18.1,43.4,18.5,43.9c0.3,0.2,3.4,0.3,7,0.1l6.6-0.3l-9.2-22.1l-9.2-22h-6.8
	C1269.9,45.7,1266.9,45.9,1266.9,46L1266.9,46z M1266.9,46"/>
<path d="M1357.9,46c0,0.5,18.1,43.4,18.5,43.9c0.3,0.2,3.4,0.3,7,0.1l6.6-0.3l-9.2-22.1l-9.2-22h-6.8
	C1361,45.7,1357.9,45.8,1357.9,46L1357.9,46z M1357.9,46"/>
<path d="M1550.2,72.5v26.8h13.2V45.7h-13.2V72.5z M1550.2,72.5"/>
<path d="M1570.4,46c0,0.5,18.1,43.4,18.5,43.9c0.3,0.2,3.4,0.3,7,0.1l6.6-0.3l-9.2-22.1l-9.1-22h-6.9
	C1573.4,45.7,1570.4,45.8,1570.4,46L1570.4,46z M1570.4,46"/>
<path d="M1661.4,46c0,0.5,18.1,43.4,18.5,43.9c0.3,0.2,3.4,0.3,7,0.1l6.6-0.3l-9.2-22.1l-9.1-22h-6.9
	C1664.5,45.7,1661.4,45.8,1661.4,46L1661.4,46z M1661.4,46"/>
<path d="M1701.9,72.5v26.8h13.2V45.7h-13.2V72.5z M1701.9,72.5"/>
<path d="M1722.4,47c0.3,0.7,4.2,10.2,8.8,21c4.6,10.8,8.5,20.3,8.8,20.9c0.3,0.8,2.3,1.3,5,1.3h4.4v11.1h160.9V88.2l-78.5-0.2
	l-78.4-0.3l-8.8-21l-8.8-20.9h-6.9C1723.8,45.7,1722,46,1722.4,47L1722.4,47z M1722.4,47"/>
<path d="M1965.2,47c0.3,0.7,4.4,10.7,9.3,22.3l8.9,21h13.8l-5.6-13.5c-3.1-7.3-7.3-17.3-9.2-22.3l-3.6-8.8h-7.1
	C1966.6,45.7,1964.8,46,1965.2,47L1965.2,47z M1965.2,47"/>
<path d="M2066.8,64.2c-4.2,10.2-8.4,20.2-9.3,22.3l-1.5,3.8h13.8l7.9-19c4.5-10.4,8.6-20.4,9.4-22.3l1.3-3.2h-13.9L2066.8,64.2z
	 M2066.8,64.2"/>
<path d="M2238.4,47c0.3,0.7,4.4,10.7,9.3,22.3l8.9,21h13.8l-5.6-13.5c-3.1-7.3-7.3-17.3-9.2-22.3l-3.6-8.8h-7.1
	C2239.7,45.7,2238,46,2238.4,47L2238.4,47z M2238.4,47"/>
<path d="M140.9,94.8v6.6h69.8V88.2h-69.8V94.8z M140.9,94.8"/>
<path d="M747.9,94.8v6.6H848V88.2H747.9V94.8z M747.9,94.8"/>
<path d="M1051.4,94.8v6.6h100.2V88.2h-100.2V94.8z M1051.4,94.8"/>
<path d="M2113.7,94.8v6.6h69.8V88.2h-69.8V94.8z M2113.7,94.8"/>
<path d="M52.8,106.7c0,0.6,18.1,43.4,18.5,43.9c0.3,0.2,3.4,0.3,7,0.1l6.6-0.3l-9.2-22.1l-9.2-22h-6.8
	C55.9,106.4,52.8,106.6,52.8,106.7L52.8,106.7z M52.8,106.7"/>
<path d="M143.9,106.7c0,0.6,18.1,43.4,18.5,43.9c0.3,0.2,3.4,0.3,7,0.1l6.6-0.3l-9.2-22.1l-9.2-22h-6.8
	C146.9,106.4,143.9,106.6,143.9,106.7L143.9,106.7z M143.9,106.7"/>
<path d="M184.4,133.3v26.8h13.2v-53.6h-13.2V133.3z M184.4,133.3"/>
<path d="M204.6,106.7c0,0.5,18.1,43.4,18.5,43.9c0.3,0.2,3.4,0.3,7,0.1l6.6-0.3l-9.2-22.1l-9.2-22h-6.8
	C207.6,106.4,204.6,106.5,204.6,106.7L204.6,106.7z M204.6,106.7"/>
<path d="M295.7,106.7c0,0.5,18.1,43.4,18.5,43.9c0.3,0.2,3.4,0.3,7,0.1l6.6-0.3l-9.2-22.1l-9.2-22h-6.8
	C298.7,106.4,295.7,106.5,295.7,106.7L295.7,106.7z M295.7,106.7"/>
<path d="M336.1,133.3v26.8h13.2v-53.6h-13.2V133.3z M336.1,133.3"/>
<path d="M487.9,133.3v26.8H501v-53.6h-13.2V133.3z M487.9,133.3"/>
<path d="M508.1,106.7c0,0.5,18.1,43.4,18.5,43.9c0.3,0.2,3.4,0.3,7,0.1l6.6-0.3l-9.2-22.1l-9.1-22H515
	C511.1,106.4,508.1,106.5,508.1,106.7L508.1,106.7z M508.1,106.7"/>
<path d="M586.7,107.7c-0.3,0.7-4.2,10.2-8.8,21c-4.6,10.8-8.5,20.3-8.8,20.9c-0.4,1,1.3,1.3,6.5,1.3h6.9l8.6-20.6
	c4.8-11.4,8.9-20.4,9.3-20c0.3,0.4,4,9.1,8.3,19.4c4.4,10.3,8.2,19.3,8.6,20c0.5,0.9,2.8,1.2,7.4,1l6.6-0.3l-9.2-22.1l-9.1-22h-12.9
	C590.8,106.4,587.1,106.7,586.7,107.7L586.7,107.7z M586.7,107.7"/>
<path d="M659.9,106.7c0,0.5,18.1,43.4,18.5,43.9c0.3,0.2,3.4,0.3,7,0.1l6.6-0.3l-9.1-22.1l-9.2-22h-6.9
	C663,106.4,659.9,106.5,659.9,106.7L659.9,106.7z M659.9,106.7"/>
<path d="M751.2,107.7c0.3,0.7,4.4,10.7,9.3,22.3l8.9,21h13.8l-5.6-13.5c-3.1-7.3-7.3-17.3-9.2-22.3l-3.6-8.8h-7.1
	C752.5,106.4,750.8,106.7,751.2,107.7L751.2,107.7z M751.2,107.7"/>
<path d="M781.6,107.7c0.3,0.7,4.4,10.7,9.3,22.3l8.9,21h13.8l-5.6-13.5c-3.1-7.3-7.3-17.3-9.2-22.3l-3.6-8.8H788
	C782.9,106.4,781.2,106.7,781.6,107.7L781.6,107.7z M781.6,107.7"/>
<path d="M842.3,107.7c0.3,0.7,4.4,10.7,9.3,22.3l8.9,21h13.8l-5.6-13.5c-3.1-7.3-7.3-17.3-9.2-22.3l-3.6-8.8h-7.1
	C843.6,106.4,841.9,106.7,842.3,107.7L842.3,107.7z M842.3,107.7"/>
<path d="M933.3,107.7c0.3,0.7,4.4,10.7,9.3,22.3l8.9,21h13.8l-5.6-13.5c-3.1-7.3-7.3-17.3-9.2-22.3l-3.6-8.8h-7.1
	C934.6,106.4,932.9,106.7,933.3,107.7L933.3,107.7z M933.3,107.7"/>
<path d="M994,107.7c0.3,0.7,4.4,10.7,9.3,22.3l8.9,21h8.8v11.1h130.5v-13.2l-63.3-0.2l-63.2-0.3l-8.8-21l-8.7-20.9h-7
	C995.3,106.4,993.6,106.7,994,107.7L994,107.7z M994,107.7"/>
<path d="M1236.8,107.7c0.3,0.7,4.4,10.7,9.3,22.3l8.9,21h13.8l-5.6-13.5c-3.1-7.3-7.3-17.3-9.2-22.3l-3.6-8.8h-7.1
	C1238.1,106.4,1236.4,106.7,1236.8,107.7L1236.8,107.7z M1236.8,107.7"/>
<path d="M1297.5,107.7c0.3,0.7,4.4,10.7,9.3,22.3l8.9,21h13.8l-5.6-13.5c-3.1-7.3-7.3-17.3-9.2-22.3l-3.6-8.8h-7.1
	C1298.8,106.4,1297.1,106.7,1297.5,107.7L1297.5,107.7z M1297.5,107.7"/>
<path d="M1388.6,107.7c0.3,0.7,4.4,10.7,9.3,22.3l8.9,21h13.8l-5.6-13.5c-3.1-7.3-7.3-17.3-9.2-22.3l-3.6-8.8h-7.1
	C1389.9,106.4,1388.2,106.7,1388.6,107.7L1388.6,107.7z M1388.6,107.7"/>
<path d="M1540.3,107.7c0.3,0.7,4.4,10.7,9.3,22.3l8.9,21h13.8l-5.6-13.5c-3.1-7.3-7.3-17.3-9.2-22.3l-3.6-8.8h-7.1
	C1541.7,106.4,1539.9,106.7,1540.3,107.7L1540.3,107.7z M1540.3,107.7"/>
<path d="M1601,107.7c0.3,0.7,4.4,10.7,9.3,22.3l8.9,21h13.8l-5.6-13.5c-3.1-7.3-7.3-17.3-9.2-22.3l-3.6-8.8h-7.1
	C1602.4,106.4,1600.6,106.7,1601,107.7L1601,107.7z M1601,107.7"/>
<path d="M1692.1,107.7c0.3,0.7,4.4,10.7,9.3,22.3l8.9,21h13.8l-5.6-13.5c-3.1-7.3-7.3-17.3-9.2-22.3l-3.6-8.8h-7.1
	C1693.4,106.4,1691.7,106.7,1692.1,107.7L1692.1,107.7z M1692.1,107.7"/>
<path d="M1732.3,133.3v26.8h13.2v-53.6h-13.2V133.3z M1732.3,133.3"/>
<path d="M1884,133.3v26.8h13.2v-53.6H1884V133.3z M1884,133.3"/>
<path d="M1904.5,107.7c0.3,0.7,4.4,10.7,9.3,22.3l8.9,21h13.8l-5.6-13.5c-3.1-7.3-7.3-17.3-9.2-22.3l-3.6-8.8h-7.1
	C1905.9,106.4,1904.1,106.7,1904.5,107.7L1904.5,107.7z M1904.5,107.7"/>
<path d="M1974.6,127.4c-4.9,11.6-9,21.7-9.3,22.3c-0.4,1,1.3,1.3,6.5,1.3h7.1l3.6-8.9c1.9-4.9,6.1-14.9,9.2-22.3l5.6-13.4h-13.8
	L1974.6,127.4z M1974.6,127.4"/>
<path d="M2035.8,133.3v26.8h13.2v-53.6h-13.2V133.3z M2035.8,133.3"/>
<path d="M2056.3,107.7c0.3,0.7,4.4,10.7,9.3,22.3l8.9,21h25.7l3.6-8.9c1.9-4.9,6.1-14.9,9.2-22.3l5.6-13.4h-13.8l-8.4,19.9
	c-4.6,11-8.6,20.3-9,20.7c-0.3,0.4-4.5-8.6-9.1-20l-8.6-20.6h-7C2057.6,106.4,2055.9,106.7,2056.3,107.7L2056.3,107.7z
	 M2056.3,107.7"/>
<path d="M2157.2,133.3v26.8h13.2v-53.6h-13.2V133.3z M2157.2,133.3"/>
<path d="M2177.7,107.7c0.3,0.7,4.4,10.7,9.3,22.3l8.9,21h13.8l-5.6-13.5c-3.1-7.3-7.3-17.3-9.2-22.3l-3.6-8.8h-7.1
	C2179,106.4,2177.3,106.7,2177.7,107.7L2177.7,107.7z M2177.7,107.7"/>
<path d="M2268.8,107.7c0.3,0.7,4.4,10.7,9.3,22.3l8.9,21h13.8l-5.6-13.5c-3.1-7.3-7.3-17.3-9.2-22.3l-3.6-8.8h-7.1
	C2270.1,106.4,2268.3,106.7,2268.8,107.7L2268.8,107.7z M2268.8,107.7"/>
<path d="M353.3,155.5v6.6h130.5v-13.2H353.3V155.5z M353.3,155.5"/>
<path d="M1749.5,155.5v6.6H1880v-13.2h-130.5V155.5z M1749.5,155.5"/>
<path d="M1992.3,155.5v6.6h39.5v-13.2h-39.5V155.5z M1992.3,155.5"/>
<path d="M2113.7,155.5v6.6h39.5v-13.2h-39.5V155.5z M2113.7,155.5"/>
<path d="M22.8,168.4c0.3,0.7,4.4,10.7,9.3,22.3l8.9,21h13.8l-5.6-13.5c-3.1-7.3-7.3-17.3-9.2-22.3l-3.6-8.8h-7.1
	C24.1,167.1,22.4,167.4,22.8,168.4L22.8,168.4z M22.8,168.4"/>
<path d="M83.5,168.4c0.3,0.7,4.4,10.7,9.3,22.3l8.9,21h13.8l-5.6-13.5c-3.1-7.3-7.3-17.3-9.2-22.3l-3.6-8.8H90
	C84.8,167.1,83.1,167.4,83.5,168.4L83.5,168.4z M83.5,168.4"/>
<path d="M326.3,168.4c0.3,0.7,4.4,10.7,9.3,22.3l8.9,21h13.8l-5.6-13.5c-3.1-7.3-7.3-17.3-9.2-22.3l-3.6-8.8h-7.1
	C327.6,167.1,325.9,167.4,326.3,168.4L326.3,168.4z M326.3,168.4"/>
<path d="M478.1,168.4c0.3,0.7,4.4,10.7,9.3,22.3l8.9,21H510l-5.6-13.5c-3.1-7.3-7.3-17.3-9.2-22.3l-3.6-8.8h-7.1
	C479.4,167.1,477.7,167.4,478.1,168.4L478.1,168.4z M478.1,168.4"/>
<path d="M518.2,194v26.8h13.2v-53.6h-13.2V194z M518.2,194"/>
<path d="M538.8,168.4c0.3,0.7,4.4,10.7,9.3,22.3l8.9,21h13.8l-5.6-13.5c-3.1-7.3-7.3-17.3-9.2-22.3l-3.6-8.8h-7.1
	C540.1,167.1,538.4,167.4,538.8,168.4L538.8,168.4z M538.8,168.4"/>
<path d="M629.8,168.4c0.3,0.7,4.4,10.7,9.3,22.3l8.9,21h13.8l-5.6-13.5c-3.1-7.3-7.3-17.3-9.2-22.3l-3.6-8.8h-7.1
	C631.1,167.1,629.4,167.4,629.8,168.4L629.8,168.4z M629.8,168.4"/>
<path d="M690.5,168.4c0.3,0.7,4.4,10.7,9.3,22.3l8.9,21h13.8l-5.6-13.5c-3.1-7.3-7.3-17.3-9.2-22.3l-3.6-8.8H697
	C691.8,167.1,690.1,167.4,690.5,168.4L690.5,168.4z M690.5,168.4"/>
<path d="M781.6,168.4c0.3,0.7,4.4,10.7,9.3,22.3l8.9,21h13.8l-5.6-13.5c-3.1-7.3-7.3-17.3-9.2-22.3l-3.6-8.8H788
	C782.9,167.1,781.2,167.4,781.6,168.4L781.6,168.4z M781.6,168.4"/>
<path d="M811.9,168.4c0.3,0.7,4.4,10.7,9.3,22.3l8.9,21h13.8l-5.6-13.5c-3.1-7.3-7.3-17.3-9.2-22.3l-3.6-8.8h-7.1
	C813.2,167.1,811.5,167.4,811.9,168.4L811.9,168.4z M811.9,168.4"/>
<path d="M872.6,168.4c0.3,0.7,4.4,10.7,9.3,22.3l8.9,21h13.8l-5.6-13.5c-3.1-7.3-7.3-17.3-9.2-22.3l-3.6-8.8h-7.1
	C873.9,167.1,872.2,167.4,872.6,168.4L872.6,168.4z M872.6,168.4"/>
<path d="M963.7,168.4c0.3,0.7,4.4,10.7,9.3,22.3l8.9,21h13.8l-5.6-13.5c-3.1-7.3-7.3-17.3-9.2-22.3l-3.6-8.8h-7.1
	C965,167.1,963.3,167.4,963.7,168.4L963.7,168.4z M963.7,168.4"/>
<path d="M1003.8,194v26.8h13.2v-53.6h-13.2V194z M1003.8,194"/>
<path d="M1155.6,194v26.8h13.2v-53.6h-13.2V194z M1155.6,194"/>
<path d="M1176.1,168.4c0.3,0.7,4.4,10.7,9.3,22.3l8.9,21h13.8l-5.6-13.5c-3.1-7.3-7.3-17.3-9.2-22.3l-3.6-8.8h-7.1
	C1177.4,167.1,1175.7,167.4,1176.1,168.4L1176.1,168.4z M1176.1,168.4"/>
<path d="M1267.1,168c0.2,0.5,4.4,10.5,9.3,22.3l9,21.4h13.8l-5.6-13.5c-3.1-7.3-7.3-17.3-9.2-22.3l-3.6-8.8h-7.1
	C1269.8,167.1,1266.9,167.5,1267.1,168L1267.1,168z M1267.1,168"/>
<path d="M1327.8,168c0.2,0.5,4.4,10.5,9.3,22.3l9,21.4h13.8l-5.6-13.5c-3.1-7.3-7.3-17.3-9.2-22.3l-3.6-8.8h-7.1
	C1330.5,167.1,1327.6,167.5,1327.8,168L1327.8,168z M1327.8,168"/>
<path d="M1418.8,168c0.2,0.5,4.4,10.5,9.3,22.3l9,21.4h13.9l-1.6-3.8c-0.8-2-5.1-12-9.3-22.3l-7.7-18.4h-7
	C1421.6,167.1,1418.6,167.5,1418.8,168L1418.8,168z M1418.8,168"/>
<path d="M1570.6,168c0.2,0.5,4.4,10.5,9.3,22.3l9,21.4h13.9l-1.6-3.8c-0.8-2-5.1-12-9.3-22.3l-7.7-18.4h-7
	C1573.3,167.1,1570.4,167.5,1570.6,168L1570.6,168z M1570.6,168"/>
<path d="M1631.3,168c0.2,0.5,4.4,10.5,9.3,22.3l9,21.4h13.9l-1.6-3.8c-0.8-2-5.1-12-9.3-22.3l-7.7-18.4h-7
	C1634,167.1,1631.1,167.5,1631.3,168L1631.3,168z M1631.3,168"/>
<path d="M1722.3,168c0.2,0.5,4.4,10.5,9.3,22.3l9,21.4h13.9l-1.3-3.3c-0.8-1.7-5-11.7-9.4-22.3l-7.9-18.9h-7
	C1725.1,167.1,1722.1,167.5,1722.3,168L1722.3,168z M1722.3,168"/>
<path d="M1874.1,168c0.2,0.5,4.4,10.5,9.3,22.3l9,21.4h13.9l-1.3-3.3c-0.8-1.7-5-11.7-9.4-22.3l-7.9-18.9h-7
	C1876.8,167.1,1873.9,167.5,1874.1,168L1874.1,168z M1874.1,168"/>
<path d="M1914.4,194v26.8h13.2v-53.6h-13.2V194z M1914.4,194"/>
<path d="M1934.8,168c0.2,0.5,4.4,10.5,9.3,22.3l9,21.4h13.9l-1.3-3.3c-0.8-1.7-5-11.7-9.4-22.3l-7.9-18.9h-7
	C1937.5,167.1,1934.6,167.5,1934.8,168L1934.8,168z M1934.8,168"/>
<path d="M2025.8,168c0.2,0.5,4.4,10.5,9.3,22.3l9,21.4h13.9l-1.5-3.8c-0.9-2-5.2-12-9.3-22.3l-7.8-18.4h-7
	C2028.6,167.1,2025.6,167.5,2025.8,168L2025.8,168z M2025.8,168"/>
<path d="M2066.1,194v26.8h13.2v-53.6h-13.2V194z M2066.1,194"/>
<path d="M2104.3,168.4c-0.3,0.7-4.2,10.2-8.8,21c-4.6,10.8-8.5,20.3-8.8,20.9c-0.4,1,1.3,1.3,6.5,1.3h7l3.6-8.9
	c2-4.9,6.2-14.9,9.3-22.3l5.6-13.4h-6.9C2107.1,167.1,2104.6,167.5,2104.3,168.4L2104.3,168.4z M2104.3,168.4"/>
<path d="M2148.6,170.9c0.9,2.1,5.1,12.1,9.3,22.3l7.7,18.5h13.9l-1.5-3.8c-0.9-2-5.2-12-9.3-22.3l-7.8-18.4H2147L2148.6,170.9z
	 M2148.6,170.9"/>
<path d="M2209.3,170.9c0.9,2.1,5.1,12.1,9.3,22.3l7.7,18.5h13.9l-1.5-3.8c-0.9-2-5.2-12-9.3-22.3l-7.8-18.4h-13.8L2209.3,170.9z
	 M2209.3,170.9"/>
<path d="M2300.3,170.9c0.9,2.1,5.1,12.1,9.3,22.3l7.7,18.5h13.9l-1.6-3.8c-0.8-2-5-12-9.2-22.3l-7.7-18.4h-13.9L2300.3,170.9z
	 M2300.3,170.9"/>
<path d="M201.6,215.7v6.1h130.5v-12.1H201.6V215.7z M201.6,215.7"/>
<path d="M1021,215.7v6.1h130.5v-12.1H1021V215.7z M1021,215.7"/>
<path d="M1506.6,215.7v6.1h69.8v-12.1h-69.8V215.7z M1506.6,215.7"/>
<path d="M52.8,227.5c0,0.4,4.2,10.7,9.2,22.8l9.3,22.1h13.8l-5-11.9c-2.7-6.5-6.9-16.6-9.4-22.5l-4.4-10.6l-6.8-0.3
	C55.9,226.8,52.8,227.1,52.8,227.5L52.8,227.5z M52.8,227.5"/>
<path d="M113.5,227.4c0,0.4,4.2,10.7,9.2,22.9l9.3,22.1h13.8l-5-11.9c-2.7-6.5-6.9-16.6-9.4-22.5l-4.4-10.6l-6.8-0.3
	C116.6,226.8,113.5,227,113.5,227.4L113.5,227.4z M113.5,227.4"/>
<path d="M204.6,227.4c0,0.4,4.2,10.7,9.2,22.9l9.3,22.1h8.8v10.1h100.2v-12.1l-48.2-0.2l-48.1-0.3l-8.9-21.2l-8.8-21.2l-6.8-0.3
	C207.6,226.8,204.6,227,204.6,227.4L204.6,227.4z M204.6,227.4"/>
<path d="M508.1,227.4c0,0.4,4.1,10.7,9.2,22.9l9.3,22.1h8.8v10.1h39.5v-12.1h-35.2l-6.3-15c-3.4-8.2-7.5-17.8-9-21.4l-2.8-6.6
	l-6.7-0.3C511.1,226.8,508.1,227,508.1,227.4L508.1,227.4z M508.1,227.4"/>
<path d="M568.8,227.4c0,0.4,4.1,10.7,9.2,22.9l9.3,22.1h6.9c6.2,0,6.9-0.2,6.3-1.7c-0.4-1-4.7-11.1-9.4-22.6l-8.8-20.7l-6.7-0.3
	C571.8,226.8,568.8,227,568.8,227.4L568.8,227.4z M568.8,227.4"/>
<path d="M659.9,227.4c0,0.4,4.1,10.7,9.2,22.9l9.3,22.1h6.9c6.2,0,6.9-0.2,6.3-1.7c-0.4-1-4.7-11.1-9.4-22.6l-8.8-20.7l-6.7-0.3
	C662.9,226.8,659.9,227,659.9,227.4L659.9,227.4z M659.9,227.4"/>
<path d="M720.6,227.4c0,0.4,4.2,10.7,9.2,22.9l9.3,22.1h6.9c6.2,0,6.9-0.2,6.3-1.7c-0.4-1-4.7-11.1-9.4-22.6l-8.8-20.7l-6.7-0.3
	C723.6,226.8,720.6,227,720.6,227.4L720.6,227.4z M720.6,227.4"/>
<path d="M811.6,227.4c0,0.4,4.1,10.7,9.2,22.9l9.3,22.1h6.9c6.2,0,6.9-0.2,6.3-1.7c-0.4-1-4.7-11.1-9.4-22.6l-8.8-20.7l-6.7-0.3
	C814.7,226.8,811.6,227,811.6,227.4L811.6,227.4z M811.6,227.4"/>
<path d="M842,227.4c0,0.4,4.1,10.7,9.2,22.9l9.3,22.1h6.9c6.2,0,6.9-0.2,6.3-1.8c-0.4-0.9-4.7-11-9.4-22.5l-8.7-20.7l-6.8-0.3
	C845,226.8,842,227,842,227.4L842,227.4z M842,227.4"/>
<path d="M902.7,227.3c0,0.4,4.1,10.6,9.2,22.9l9.3,22.2h6.9c6.2,0,6.9-0.2,6.3-1.8c-0.4-0.9-4.7-11-9.4-22.5l-8.7-20.7l-6.8-0.3
	C905.7,226.8,902.7,227,902.7,227.3L902.7,227.3z M902.7,227.3"/>
<path d="M993.7,227.3c0,0.4,4.1,10.6,9.2,22.9l9.3,22.2h6.9c6.2,0,6.9-0.2,6.3-1.8c-0.4-0.9-4.7-11-9.4-22.5l-8.7-20.7l-6.8-0.3
	C996.8,226.8,993.7,227,993.7,227.3L993.7,227.3z M993.7,227.3"/>
<path d="M1145.5,227.3c0,0.4,4.2,10.6,9.2,22.9l9.3,22.2h8.8v10.1h39.5v-12.1H1177l-4.1-9.9c-2.2-5.4-6.3-15.1-9-21.4l-4.9-11.6
	l-6.8-0.3C1148.5,226.8,1145.5,227,1145.5,227.3L1145.5,227.3z M1145.5,227.3"/>
<path d="M1206.2,227.3c0,0.4,4.1,10.6,9.2,22.9l9.3,22.2h6.9c5.7,0,6.8-0.3,6.4-1.5c-0.3-0.8-4.6-10.9-9.4-22.5l-8.8-21l-6.8-0.3
	C1209.2,226.8,1206.2,227,1206.2,227.3L1206.2,227.3z M1206.2,227.3"/>
<path d="M1297.2,227.3c0,0.4,4.1,10.6,9.2,22.9l9.3,22.2h6.9c5.7,0,6.8-0.3,6.4-1.5c-0.3-0.8-4.6-10.9-9.4-22.5l-8.8-21l-6.8-0.3
	C1300.3,226.8,1297.2,227,1297.2,227.3L1297.2,227.3z M1297.2,227.3"/>
<path d="M1357.9,227.3c0,0.4,4.1,10.6,9.2,22.9l9.3,22.2h6.9c5.7,0,6.8-0.3,6.4-1.5c-0.3-0.8-4.6-10.9-9.4-22.5l-8.8-21l-6.8-0.3
	C1361,226.8,1357.9,227,1357.9,227.3L1357.9,227.3z M1357.9,227.3"/>
<path d="M1449,227.4c0,0.3,4.1,10.5,9.3,22.8l9.2,22.2h6.9c5.7,0,6.8-0.3,6.4-1.5c-0.3-0.8-4.6-10.9-9.4-22.5l-8.8-21l-6.8-0.3
	C1452,226.8,1449,227,1449,227.4L1449,227.4z M1449,227.4"/>
<path d="M1509.7,227.4c0,0.3,4.2,10.5,9.3,22.8l9.2,22.2h8.8v10.1h69.8v-12.1h-65.6l-4.1-9.9c-2.2-5.4-6.3-15.1-9-21.4l-4.9-11.6
	l-6.8-0.3C1512.7,226.8,1509.7,227,1509.7,227.4L1509.7,227.4z M1509.7,227.4"/>
<path d="M1600.7,227.4c0,0.3,4.1,10.5,9.3,22.8l9.2,22.2h8.8v10.1h39.5v-12.1h-35.2l-4.1-9.9c-2.2-5.4-6.3-15.1-9-21.4l-4.9-11.6
	l-6.8-0.3C1603.8,226.8,1600.7,227,1600.7,227.4L1600.7,227.4z M1600.7,227.4"/>
<path d="M1661.4,227.4c0,0.3,4.1,10.5,9.3,22.8l9.2,22.2h6.9c5.7,0,6.8-0.3,6.4-1.5c-0.3-0.8-4.6-10.9-9.4-22.5l-8.8-21l-6.8-0.3
	C1664.5,226.8,1661.4,227,1661.4,227.4L1661.4,227.4z M1661.4,227.4"/>
<path d="M1752.5,227.4c0,0.3,4.2,10.5,9.3,22.8l9.2,22.2h6.9c5.7,0,6.8-0.3,6.4-1.5c-0.3-0.8-4.6-10.9-9.4-22.5l-8.8-21l-6.8-0.3
	C1755.5,226.8,1752.5,227,1752.5,227.4L1752.5,227.4z M1752.5,227.4"/>
<path d="M1904.2,227.4c0,0.3,4.2,10.5,9.3,22.8l9.2,22.2h8.8v10.1h39.5v-12.1h-35.2l-4.1-9.9c-2.2-5.4-6.3-15.1-9-21.4l-4.9-11.6
	l-6.8-0.3C1907.3,226.8,1904.2,227,1904.2,227.4L1904.2,227.4z M1904.2,227.4"/>
<path d="M1964.9,227.4c0,0.3,4.1,10.5,9.3,22.8l9.2,22.2h6.9c5.7,0,6.8-0.3,6.4-1.5c-0.3-0.8-4.6-10.9-9.4-22.5l-8.8-21l-6.8-0.3
	C1968,226.8,1964.9,227,1964.9,227.4L1964.9,227.4z M1964.9,227.4"/>
<path d="M2056,227.4c0,0.3,4.1,10.5,9.3,22.8l9.2,22.2h6.9c5.7,0,6.8-0.3,6.4-1.5c-0.3-0.8-4.6-10.9-9.4-22.5l-8.8-21l-6.8-0.3
	C2059,226.8,2056,227,2056,227.4L2056,227.4z M2056,227.4"/>
<path d="M2177.4,227.4c0,0.3,4.2,10.5,9.3,22.8l9.2,22.2h6.9c5.7,0,6.8-0.3,6.4-1.5c-0.3-0.8-4.6-10.9-9.4-22.5l-8.8-21l-6.8-0.3
	C2180.4,226.8,2177.4,227,2177.4,227.4L2177.4,227.4z M2177.4,227.4"/>
<path d="M2238.1,227.4c0,0.3,4.1,10.5,9.3,22.8l9.2,22.2h6.9c5.7,0,6.8-0.3,6.4-1.5c-0.3-0.8-4.6-10.9-9.4-22.5l-8.8-21l-6.8-0.3
	C2241.1,226.8,2238.1,227,2238.1,227.4L2238.1,227.4z M2238.1,227.4"/>
<path d="M2329.2,227.3c0,0.4,4.1,10.6,9.3,22.9l9.2,22.2h6.9c5.7,0,6.8-0.3,6.4-1.5c-0.3-0.8-4.6-10.9-9.4-22.5l-8.8-21l-6.8-0.3
	C2332.2,226.8,2329.2,227,2329.2,227.3L2329.2,227.3z M2329.2,227.3"/>
<path d="M336.1,254.7v26.8h13.2v-53.6h-13.2V254.7z M336.1,254.7"/>
<path d="M1489.4,254.7v26.8h13.2v-53.6h-13.2V254.7z M1489.4,254.7"/>
<path d="M444.4,276.4v6.1h69.8v-12.1h-69.8V276.4z M444.4,276.4"/>
<path d="M1081.7,276.4v6.1h69.8v-12.1h-69.8V276.4z M1081.7,276.4"/>
<path d="M1840.5,276.4v6.1h69.8v-12.1h-69.8V276.4z M1840.5,276.4"/>
<path d="M83.2,288c0,0.4,4.2,10.6,9.2,22.9l9.3,22.2h6.9c5.7,0,6.8-0.3,6.4-1.5c-0.3-0.8-4.6-10.9-9.4-22.5l-8.8-21l-6.8-0.3
	C86.2,287.5,83.2,287.7,83.2,288L83.2,288z M83.2,288"/>
<path d="M143.9,288c0,0.4,4.2,10.6,9.2,22.9l9.3,22.2h8.8v10.1H241V331h-65.6l-4.1-9.9c-2.2-5.4-6.3-15.1-9-21.4l-4.9-11.6l-6.8-0.3
	C146.9,287.5,143.9,287.7,143.9,288L143.9,288z M143.9,288"/>
<path d="M235,288c0,0.4,4.2,10.6,9.2,22.9l9.3,22.2h6.9c5.7,0,6.8-0.3,6.4-1.5c-0.3-0.8-4.6-10.9-9.4-22.5l-8.8-21l-6.8-0.3
	C238,287.5,235,287.7,235,288L235,288z M235,288"/>
<path d="M447.4,288.1c0,0.3,4.1,10.5,9.3,22.8l9.2,22.2h8.8v10.1h221.6V331H479l-4.1-9.9c-2.2-5.4-6.3-15.1-9-21.4L461,288l-6.8-0.3
	C450.4,287.5,447.4,287.7,447.4,288.1L447.4,288.1z M447.4,288.1"/>
<path d="M690.2,288.1c0,0.3,4.1,10.5,9.3,22.8l9.2,22.2h6.9c5.7,0,6.8-0.3,6.4-1.5c-0.3-0.8-4.6-10.9-9.4-22.5l-8.8-21l-6.8-0.3
	C693.2,287.5,690.2,287.7,690.2,288.1L690.2,288.1z M690.2,288.1"/>
<path d="M750.9,288.1c0,0.3,4.1,10.5,9.3,22.8l9.2,22.2h8.8v10.1H848V331h-65.6l-4.1-9.9c-2.2-5.4-6.3-15.1-9-21.4l-4.9-11.6
	l-6.8-0.3C753.9,287.5,750.9,287.7,750.9,288.1L750.9,288.1z M750.9,288.1"/>
<path d="M842,288.1c0,0.3,4.1,10.5,9.3,22.8l9.2,22.2h6.9c5.7,0,6.8-0.3,6.4-1.5c-0.3-0.8-4.6-10.9-9.4-22.5l-8.8-21l-6.8-0.3
	C845,287.5,842,287.7,842,288.1L842,288.1z M842,288.1"/>
<path d="M872.3,288.1c0,0.3,4.1,10.5,9.3,22.8l9.2,22.2h6.9c5.7,0,6.8-0.3,6.4-1.5c-0.3-0.8-4.6-10.9-9.4-22.5l-8.8-21l-6.8-0.3
	C875.4,287.5,872.3,287.7,872.3,288.1L872.3,288.1z M872.3,288.1"/>
<path d="M933,288.1c0,0.3,4.1,10.5,9.3,22.8l9.2,22.2h8.8v10.1h69.8V331h-65.6l-4.1-9.9c-2.2-5.4-6.3-15.1-9-21.4l-4.9-11.6
	l-6.8-0.3C936.1,287.5,933,287.7,933,288.1L933,288.1z M933,288.1"/>
<path d="M1024.1,288.1c0,0.3,4.2,10.5,9.3,22.8l9.2,22.2h6.9c5.7,0,6.8-0.3,6.4-1.5c-0.3-0.8-4.6-10.9-9.4-22.5l-8.8-21l-6.8-0.3
	C1027.1,287.5,1024.1,287.7,1024.1,288.1L1024.1,288.1z M1024.1,288.1"/>
<path d="M1084.8,288.1c0,0.3,4.2,10.5,9.3,22.8l9.2,22.2h8.8v10.1h221.6V331h-217.3l-4.1-9.9c-2.2-5.4-6.3-15.1-9-21.4l-4.9-11.6
	l-6.8-0.3C1087.8,287.5,1084.8,287.7,1084.8,288.1L1084.8,288.1z M1084.8,288.1"/>
<path d="M1327.6,288c0,0.4,4.1,10.6,9.3,22.9l9.2,22.2h6.9c5.7,0,6.8-0.3,6.4-1.5c-0.3-0.8-4.6-10.9-9.4-22.5l-8.8-21l-6.8-0.3
	C1330.6,287.5,1327.6,287.7,1327.6,288L1327.6,288z M1327.6,288"/>
<path d="M1388.3,288c0,0.4,4.1,10.6,9.3,22.9l9.2,22.2h8.8v10.1h373.3V331h-369.1l-4.1-9.9c-2.2-5.4-6.3-15.1-9-21.4l-4.9-11.6
	l-6.8-0.3C1391.3,287.5,1388.3,287.7,1388.3,288L1388.3,288z M1388.3,288"/>
<path d="M1782.8,288c0,0.4,4.2,10.6,9.3,22.9l9.2,22.2h6.9c5.7,0,6.8-0.3,6.4-1.5c-0.3-0.8-4.6-10.9-9.4-22.5l-8.8-21l-6.8-0.3
	C1785.9,287.5,1782.8,287.7,1782.8,288L1782.8,288z M1782.8,288"/>
<path d="M1843.5,288c0,0.4,4.2,10.6,9.3,22.9l9.2,22.2h8.8v10.1h221.6V331h-217.3l-4.1-9.9c-2.2-5.4-6.3-15.1-9-21.4l-4.9-11.6
	l-6.8-0.3C1846.6,287.5,1843.5,287.7,1843.5,288L1843.5,288z M1843.5,288"/>
<path d="M2086.7,289.3c0.4,1,4.7,11.2,9.4,22.8l8.7,21h13.9l-1.5-3.8c-0.8-2-5.1-12.1-9.4-22.5l-7.9-18.7l-6.9-0.3
	C2086.7,287.4,2086.1,287.6,2086.7,289.3L2086.7,289.3z M2086.7,289.3"/>
<path d="M2208.2,289.3c0.4,1,4.7,11.2,9.4,22.8l8.7,21h13.9l-1.7-4.4c-0.9-2.3-5.2-12.4-9.4-22.5l-7.7-18.2l-6.9-0.3
	C2208.2,287.4,2207.5,287.6,2208.2,289.3L2208.2,289.3z M2208.2,289.3"/>
<path d="M2268.9,289.3c0.4,1,4.7,11.2,9.4,22.8l8.7,21h8.8v10.1h69.8V331h-65.5l-9-21.6L2282,288l-6.9-0.3
	C2268.9,287.4,2268.2,287.6,2268.9,289.3L2268.9,289.3z M2268.9,289.3"/>
<path d="M427.2,315.4v26.8h13.2v-53.6h-13.2V315.4z M427.2,315.4"/>
<path d="M1064.5,315.4v26.8h13.2v-53.6h-13.2V315.4z M1064.5,315.4"/>
<path d="M1823.3,315.4v26.8h13.2v-53.6h-13.2V315.4z M1823.3,315.4"/>
<path d="M113.5,348.7c0,0.4,4.2,10.6,9.3,22.9l9.2,22.2h6.9c5.7,0,6.8-0.3,6.4-1.5c-0.3-0.8-4.6-10.9-9.4-22.5l-8.8-21l-6.8-0.3
	C116.6,348.2,113.5,348.4,113.5,348.7L113.5,348.7z M113.5,348.7"/>
<path d="M417.1,348.7c0,0.4,4.1,10.6,9.3,22.9l9.2,22.2h6.9c5.7,0,6.8-0.3,6.4-1.5c-0.3-0.8-4.6-10.9-9.4-22.5l-8.8-21l-6.8-0.3
	C420.1,348.2,417.1,348.4,417.1,348.7L417.1,348.7z M417.1,348.7"/>
<path d="M720.6,348.7c0,0.4,4.2,10.6,9.3,22.9l9.2,22.2h13.9l-1.5-3.8c-0.8-2-5.1-12.1-9.4-22.5l-7.9-18.7l-6.8-0.3
	C723.6,348.2,720.6,348.4,720.6,348.7L720.6,348.7z M720.6,348.7"/>
<path d="M903.1,350c0.4,1,4.7,11.2,9.4,22.8l8.7,21H935l-1.5-3.8c-0.8-2-5.1-12.1-9.4-22.5l-7.9-18.7l-6.9-0.3
	C903.1,348.1,902.5,348.3,903.1,350L903.1,350z M903.1,350"/>
<path d="M1054.8,350c0.4,1,4.7,11.2,9.4,22.8l8.7,21h13.9l-1.7-4.4c-0.9-2.3-5.2-12.4-9.4-22.5l-7.7-18.2l-6.9-0.3
	C1054.8,348.1,1054.2,348.3,1054.8,350L1054.8,350z M1054.8,350"/>
<path d="M1358.3,350c0.4,1,4.7,11.2,9.4,22.8l8.8,21h13.8l-1.7-4.4c-0.9-2.3-5.2-12.4-9.4-22.5l-7.6-18.2l-7-0.3
	C1358.3,348.1,1357.7,348.3,1358.3,350L1358.3,350z M1358.3,350"/>
<path d="M1813.6,350c0.4,1,4.7,11.2,9.4,22.8l8.8,21h13.8l-1.8-4.4c-0.9-2.4-5.2-12.6-9.3-22.8l-7.6-18.4h-7
	C1813.7,348.2,1813.1,348.4,1813.6,350L1813.6,350z M1813.6,350"/>
<path d="M2238.5,350c0.4,1,4.7,11.2,9.5,22.8l8.7,21h13.8l-1.8-4.4c-0.9-2.4-5.2-12.6-9.3-22.8l-7.6-18.4h-7
	C2238.6,348.2,2238,348.4,2238.5,350L2238.5,350z M2238.5,350"/>
<path d="M154,376.1v26.8h13.2v-53.6H154V376.1z M154,376.1"/>
<path d="M245.1,376.1v26.8h13.2v-53.6h-13.2V376.1z M245.1,376.1"/>
<path d="M457.5,376.1v26.8h13.2v-53.6h-13.2V376.1z M457.5,376.1"/>
<path d="M700.3,376.1v26.8h13.2v-53.6h-13.2V376.1z M700.3,376.1"/>
<path d="M761,376.1v26.8h13.2v-53.6H761V376.1z M761,376.1"/>
<path d="M852.1,376.1v26.8h13.2v-53.6h-13.2V376.1z M852.1,376.1"/>
<path d="M943.1,376.1v26.8h13.2v-53.6h-13.2V376.1z M943.1,376.1"/>
<path d="M1034.2,376.1v26.8h13.2v-53.6h-13.2V376.1z M1034.2,376.1"/>
<path d="M1094.9,376.1v26.8h13.2v-53.6h-13.2V376.1z M1094.9,376.1"/>
<path d="M1337.7,376.1v26.8h13.2v-53.6h-13.2V376.1z M1337.7,376.1"/>
<path d="M1398.4,376.1v26.8h13.2v-53.6h-13.2V376.1z M1398.4,376.1"/>
<path d="M1793,376.1v26.8h13.2v-53.6H1793V376.1z M1793,376.1"/>
<path d="M1853.7,376.1v26.8h13.2v-53.6h-13.2V376.1z M1853.7,376.1"/>
<path d="M2096.5,376.1v26.8h13.2v-53.6h-13.2V376.1z M2096.5,376.1"/>
<path d="M2278.6,376.1v26.8h13.2v-53.6h-13.2V376.1z M2278.6,376.1"/>
<path d="M2369.6,376.1v26.8h13.2v-53.6h-13.2V376.1z M2369.6,376.1"/>
<path d="M171.7,399.3v6.6h69.8v-13.2h-69.8V399.3z M171.7,399.3"/>
<path d="M474.9,399.3v6.6h221.6v-13.2H474.9V399.3z M474.9,399.3"/>
<path d="M778.2,399.3v6.6h70v-13.2h-70V399.3z M778.2,399.3"/>
<path d="M960.1,399.3v6.6h70v-13.2h-70V399.3z M960.1,399.3"/>
<path d="M1111.7,399.3v6.6h221.6v-13.2h-221.6V399.3z M1111.7,399.3"/>
<path d="M1418.7,399.3v6.6h370.7v-13.2h-370.7V399.3z M1418.7,399.3"/>
<path d="M1872.3,399.3v6.6h220.4v-13.2h-220.4V399.3z M1872.3,399.3"/>
<path d="M2296.1,399.3v6.6h68.2v-13.2h-68.2V399.3z M2296.1,399.3"/>
<path d="M20.6,35.4V42h250.2V28.8H20.6V35.4z M20.6,35.4"/>
<path d="M322.5,34.2v6.6h250.2V27.6H322.5V34.2z M322.5,34.2"/>
<path d="M625.8,34.2v6.6h262.8V27.6H625.8V34.2z M625.8,34.2"/>
<path d="M960.6,34.2v6.6h250.2V27.6H960.6V34.2z M960.6,34.2"/>
<path d="M1263.8,34.2v6.6h99.8V27.6h-99.8V34.2z M1263.8,34.2"/>
<path d="M1567.1,34.2v6.6h69.5V27.6h-69.5V34.2z M1567.1,34.2"/>
<path d="M1718.7,34.2v6.6h252.7V27.6h-252.7V34.2z M1718.7,34.2"/>
<path d="M2083.8,34.2v6.6h160.5V27.6h-160.5V34.2z M2083.8,34.2"/>
<path d="M0.1,112.8c0.3,0.7,4.4,10.7,9.3,22.3l8.9,21H32l-5.6-13.5c-3.1-7.3-7.3-17.3-9.2-22.3l-3.6-8.8H6.5
	C1.4,111.5-0.4,111.9,0.1,112.8L0.1,112.8z M0.1,112.8"/>
<path d="M2353.2,282.9c0,0.4,4.1,10.6,9.3,22.9l9.2,22.2h6.9c5.7,0,6.8-0.3,6.4-1.5c-0.3-0.8-4.6-10.9-9.4-22.5l-8.8-21l-6.8-0.3
	C2356.2,282.4,2353.2,282.6,2353.2,282.9L2353.2,282.9z M2353.2,282.9"/>
</svg>
